<svg width="512" height="512" viewBox="0 0 512 512" fill="none" xmlns="http://www.w3.org/2000/svg">
<circle cx="33" cy="175" r="24" stroke="#da2562" stroke-width="4" stroke-dasharray="10 8"/>
<circle cx="119" cy="74" r="24" stroke="#da2562" stroke-width="4" stroke-dasharray="10 8"/>
<circle cx="236" cy="30" r="24" stroke="#da2562" stroke-width="4" stroke-dasharray="10 8"/>
<circle cx="365" cy="64" r="24" stroke="#da2562" stroke-width="4" stroke-dasharray="10 8"/>
<circle cx="476" cy="282" r="24" stroke="#da2562" stroke-width="4" stroke-dasharray="10 8"/>
<circle cx="115.5" cy="311.5" r="8.5" fill="white"/>
<circle cx="235.5" cy="435.5" r="8.5" fill="white"/>
<circle cx="159.5" cy="410.5" r="8.5" fill="white"/>
<circle cx="211.5" cy="346.5" r="8.5" fill="white"/>
<circle cx="285.5" cy="379.5" r="8.5" fill="white"/>
<circle cx="164.5" cy="322.5" r="8.5" fill="white"/>
<circle cx="115.5" cy="388.5" r="8.5" fill="white"/>
<circle cx="147.5" cy="449.5" r="8.5" fill="white"/>
<circle cx="217.5" cy="476.5" r="8.5" fill="white"/>
<circle cx="302.5" cy="459.5" r="8.5" fill="white"/>
<circle cx="151.5" cy="205.5" r="8.5" fill="white"/>
<circle cx="235.5" cy="93.5" r="8.5" fill="white"/>
<circle cx="235.5" cy="162.5" r="8.5" fill="white"/>
<circle cx="347.5" cy="118.5" r="8.5" fill="white"/>
<circle cx="325.5" cy="186.5" r="8.5" fill="white"/>
<circle cx="439.5" cy="314.5" r="8.5" fill="white"/>
<circle cx="397.5" cy="350.5" r="8.5" fill="white"/>
<circle cx="82.5" cy="258.5" r="8.5" fill="white"/>
<circle cx="134.5" cy="136.5" r="8.5" fill="white"/>
<circle cx="56.5" cy="216.5" r="8.5" fill="white"/>
<circle cx="235.5" cy="266.5" r="8.5" fill="white"/>
<circle cx="293.5" cy="288.5" r="8.5" fill="white"/>
<circle cx="337.5" cy="399.5" r="8.5" fill="white"/>
<circle cx="168.5" cy="278.5" r="8.5" fill="white"/>
<circle cx="32.5" cy="175.5" r="8.5" fill="white"/>
<circle cx="119.5" cy="76.5" r="8.5" fill="white"/>
<circle cx="235.5" cy="30.5" r="8.5" fill="white"/>
<circle cx="364.5" cy="64.5" r="8.5" fill="white"/>
<circle cx="475.5" cy="282.5" r="8.5" fill="white"/>
<circle cx="239.5" cy="305.5" r="8.5" fill="white"/>
</svg>
