<?xml version="1.0" encoding="UTF-8"?>
<svg id="Layer_2" xmlns="http://www.w3.org/2000/svg" viewBox="0 0 701.84 701.57">
    <defs>
        <style>.cls-1{fill:#8cd9c4;}</style>
    </defs>
    <g id="Layer_1-2">
        <g>
            <path class="cls-1"
                  d="M701.84,398.85c-3.98,14.89-14.03,25.59-24.31,36.39-63.81,66.98-127.23,134.34-191.16,201.22-41.15,43.05-91.84,65.1-151.51,65.12-23.92,0-48.09,.14-71.71-3.04-38.6-5.2-71.68-23.28-99.89-50.11-5.44-5.17-5.81-11.59-1.35-16.36,4.61-4.94,10.94-4.89,16.91,.72,24.24,22.75,52.55,37.74,85.22,43.81,27.58,5.13,55.55,4.16,83.35,2.42,51.8-3.23,93.79-26.23,129.04-63.9,63.37-67.71,127.52-134.69,191.43-201.91,7.01-7.37,12.6-15.29,11.68-25.93-1.26-14.48-12.8-25.49-27.53-25.29-30.88,.41-57.68,11.13-78.29,34.63-18.52,21.11-36.32,42.87-54.44,64.33-9.95,11.78-22.88,15.49-36.77,10.56-13.94-4.95-21.82-16.47-21.94-32.07,0-.46,.04-.92,0-1.37-5.28-47.74,8.93-92.42,21.21-137.48,17.06-62.62,33.72-125.34,50.39-188.06,5.71-21.49-5.43-41.99-25.5-47.85-21.03-6.15-41.48,5.08-47.89,27.23-24.7,85.31-49.1,170.71-73.61,256.08-3.2,11.15-6.66,14.64-13.78,13.77-7.03-.86-9.5-5.24-9.5-16.88,0-93.88,.02-187.77-.02-281.65,0-20.51-11.51-35.91-29.61-39.96-24.48-5.48-46.67,11.95-47.11,37.21-.25,14.39-.05,28.78-.05,43.17,0,77.44,0,154.87,0,232.31,0,1.83,.04,3.66-.01,5.48-.19,6.9-3.7,11.4-9.78,11.9-6.36,.51-10.39-2.69-12.04-8.81-5.04-18.69-10.07-37.38-15.07-56.08-16.13-60.27-32.73-120.43-48.18-180.87-7.9-30.89-41.33-41.22-62.83-22.72-11.21,9.65-16.34,22.11-12.51,36.76,14.17,54.2,28.68,108.32,43.1,162.45,7.68,28.83,15.47,57.63,23.09,86.47,2.04,7.71-2.54,14.12-9.94,14.53-5.62,.31-8.67-3.06-11.22-7.48-13.07-22.74-26.22-45.44-39.34-68.15-15.52-26.86-30.96-53.76-46.6-80.55-8.54-14.64-23.16-20.48-38.47-15.79-20.95,6.41-29.42,28.67-18.12,48.61,14.4,25.4,29.12,50.62,43.77,75.88,16.12,27.81,32.68,55.37,42.07,86.5,8.09,26.81,12.23,54.09,13.34,82.1,.66,16.51,4.13,32.9,6.11,49.38,.42,3.5,1.18,8.1-.56,10.43-2.22,2.96-6.71,5.38-10.46,5.77-5.36,.55-8.95-3.63-9.88-8.73-2.68-14.77-6.93-29.62-6.94-44.44-.04-54.83-13.93-105.28-42.49-152.11-18.87-30.95-36.63-62.6-54.44-94.19-18.18-32.25-2.63-70.69,32.24-80.82,24.24-7.04,49.23,3.06,62.73,25.86,13.02,21.98,25.62,44.21,38.41,66.32,1.47,2.54,3.01,5.04,5.55,7.17-4.29-16.09-8.59-32.17-12.87-48.26-10.35-38.95-21.4-77.74-30.81-116.91-7.49-31.21,12.8-62.36,43.9-70.35,30.78-7.91,63.29,9.35,72.19,39.96,11.76,40.45,22.13,81.3,33.08,121.98,3.31,12.28,6.58,24.57,11.09,36.82,0-2.23,0-4.46,0-6.69,0-60.99,.65-121.99-.25-182.97-.52-34.88,23.78-59.34,49.27-63.36,.61-.1,1.13-.69,1.69-1.06,6.4,0,12.79,0,19.19,0,.34,.29,.64,.74,1.03,.85,34.37,9.64,49.66,29.85,49.66,65.68,0,64.86,0,129.71,0,194.57,0,2.3,0,4.61,0,6.91,1.69-1.89,2.31-3.78,2.86-5.69,16.9-58.86,33.69-117.75,50.72-176.58,9.53-32.93,41.99-51.49,74.18-42.79,32,8.65,50.96,41.43,42.23,74.43-21.08,79.68-42.6,159.24-63.84,238.88-2.81,10.52-6.34,21.11-7.13,31.85-1.21,16.35-.22,32.86-.37,49.3-.06,6.01,1.35,11.11,7.46,13.2,6.08,2.07,10.23-1.16,14.06-5.77,16.07-19.3,32.63-38.2,48.5-57.66,22.37-27.45,51.32-42.26,86.07-46.82,36.11-4.74,56.99,14.67,62.48,39.64,.09,.39,.56,.69,.85,1.04v17.82Z"/>
            <path class="cls-1"
                  d="M285.14,616.69c.86-70.44,52.8-138.97,121.61-160.12,8.9-2.74,18.07-4.65,27.21-6.52,8.26-1.69,14.2,1.81,15.46,8.44,1.27,6.74-2.79,11.74-11.27,13.24-54.76,9.7-94.14,39.55-117.78,89.9-8.64,18.4-12.52,38.02-13.29,58.26-.38,10.03-3.91,14.78-11.27,14.64-7.32-.14-10.72-4.95-10.67-15.1,0-.91,0-1.83,0-2.74Z"/>
            <path class="cls-1"
                  d="M153.51,605.68c.06,6.46-4.67,11.17-11.11,11.07-6.44-.1-13.58-8.31-13.48-15.52,.08-6.01,4.8-10.66,10.89-10.71,6.79-.06,13.63,7.51,13.7,15.16Z"/>
        </g>
    </g>
</svg>