<svg width="512" height="512" viewBox="0 0 512 512" fill="none" xmlns="http://www.w3.org/2000/svg">
<path d="M120 79L169 278" stroke="#a5dcf3" stroke-width="4" stroke-linecap="round" stroke-linejoin="round"/>
<path d="M33 179L114 312" stroke="#a5dcf3" stroke-width="4" stroke-linecap="round" stroke-linejoin="round"/>
<path d="M236 34V267" stroke="#a5dcf3" stroke-width="4" stroke-linecap="round" stroke-linejoin="round"/>
<path d="M363 68L295 288" stroke="#a5dcf3" stroke-width="4" stroke-linecap="round" stroke-linejoin="round"/>
<path d="M474 284L340 401M340 401L302 460.5L219.5 478.5L145.5 451.5L114 390V312L169 278L236 266.5L295 287.5L339.604 400M340 401L339.604 400M339.604 400L219.5 475L198.511 393.536M198.511 393.536L338.5 399.5L236 267.5L115 312.5L146.5 451L301.5 459.5L294.5 288L169 279L198.511 393.536ZM198.511 393.536L115.5 390L162.5 318.5L242 303.5L287.5 381L236 438L157 414.5L162.5 325L282 381L276 431.5L239 308L162.5 410.5L166.5 444L243.5 382.5L197.5 322L219.5 291.5L198.511 393.536Z" stroke="#a5dcf3" stroke-width="4" stroke-linecap="round" stroke-linejoin="round"/>
</svg>
