<?xml version="1.0" encoding="UTF-8"?><svg id="Layer_2" xmlns="http://www.w3.org/2000/svg" viewBox="0 0 704.67 704.67"><defs><style>.cls-1{fill:none;}.cls-2{fill:#9f7d6b;}.cls-3{fill:#735d50;}.cls-4{fill:#151515;}.cls-5{fill:#3f3f3f;}.cls-6{fill:#644c42;}.cls-7{fill:#635128;}.cls-8{fill:#30201a;}</style></defs><g id="Layer_1-2"><g><rect class="cls-1" width="704.67" height="704.67"/><g><path class="cls-4" d="M301.72,372.71c-4.56-9.32-9.24-18.59-13.86-27.88-1.98-3.99-5.27-5.95-9.62-5.96-14.75-.05-29.5-.07-44.25,.02-5.15,.03-8.61,3.06-9.54,7.83-.76,3.87,1.4,8.02,5.39,9.69,1.55,.64,3.4,.74,5.12,.75,11.67,.06,23.33,.09,35-.01,2.46-.02,3.96,.58,5.03,2.99,2.03,4.54,4.45,8.91,6.68,13.36,.16,.32,.22,.68,.32,1.16,7.1-.1,14.2-.53,21.29,.15-.63-.48-1.1-1.17-1.56-2.1Z"/><path class="cls-4" d="M102.22,372.86c.12-.31,.24-.61,.37-.91,5.53-12.98,11.32-25.85,16.49-38.97,1.88-4.78,5.19-7.09,9.41-9.07,5.72-2.68,11.33-5.57,16.95-8.45,1.68-.86,2.91-.82,4,.9,2.24,3.5,4.51,6.98,6.9,10.38,1.04,1.48,.77,2.49-.43,3.67-3.8,3.72-7.63,7.42-11.26,11.31-4.5,4.81-3.17,11.64,2.67,14.66,3.28,1.7,7.62,.87,10.76-2.22,4.33-4.25,8.62-8.55,12.84-12.91,1.61-1.67,3.35-2.5,5.73-2.38,3.32,.17,6.67-.02,10,.05,3.46,.07,6.23-1.18,8.68-3.63,16.03-16.09,32.14-32.1,48.16-48.2,1.5-1.51,2.95-2.16,5.06-1.8,9.18,1.58,18.38,3.06,27.58,4.57,3.86,.63,7.72,1.31,11.59,1.82,2.88,.38,4.98,1.47,6.63,4.11,4.23,6.76,8.9,13.24,13.22,19.94,2.27,3.53,5.46,4.97,9.44,5.04,3.5,.07,7,.11,10.5-.01,2.09-.07,3.61,.67,5.06,2.13,7.31,7.39,14.65,14.75,22.05,22.05,3.83,3.78,8.3,4.23,12.2,1.45,4.8-3.42,5.32-9.6,.99-14.11-4.84-5.03-9.85-9.9-14.79-14.84-1.82-1.82-3.59-3.71-5.49-5.45-1.35-1.24-1.45-2.27-.44-3.87,7.37-11.65,14.65-23.37,21.95-35.06,3.96-6.34,7.91-12.69,11.89-19.02,1.65-2.64,1.74-2.66,4.4-.91,5.28,3.47,10.58,6.91,15.78,10.48,2.23,1.53,4.55,2.21,7.24,2.2,9.25-.06,18.5,.03,27.75-.06,2.1-.02,3.58,.53,4.87,2.29,5.46,7.44,11,14.82,16.63,22.14,1.3,1.69,1.17,2.77-.31,4.22-6.24,6.12-12.48,12.25-18.51,18.57-1.64,1.72-3.11,3.99-3.66,6.26-.96,3.94,.98,7.5,4.22,9.32,3.63,2.03,7.45,1.81,10.62-1.14,4.64-4.3,9.04-8.85,13.53-13.31,2.9-2.87,5.81-5.73,8.64-8.67,1.26-1.31,2.39-1.49,4.19-.88,10.52,3.62,21.11,7.06,31.67,10.56,3.78,1.25,7.57,2.51,11.34,3.79,.38,.13,.8,.37,1.01,.68,3.01,4.35,6,8.71,9.33,13.57-5.75,1.47-10.81,2.74-15.87,4.05-3.06,.79-6.14,1.5-9.14,2.46-3.78,1.2-6.35,5.56-5.78,9.46,.67,4.65,4.07,8.08,8.46,7.93,2.95-.1,5.92-.77,8.81-1.49,12.34-3.06,24.65-6.25,36.97-9.37,8.22-2.08,16.44-4.14,24.69-6.11,.85-.2,2.03,.03,2.77,.51,6.27,4.08,12.57,8.12,18.62,12.51,1.31,.95,1.89,3.16,2.38,4.92,1.44,5.2,2.68,10.46,3.97,15.7,.03,.1,.04,.21,.05,.32,6.53,1.73,12.57,.07,18.91,.06-.11-.26-.21-.54-.29-.88-2.02-8.65-4.24-17.26-6.39-25.88-.84-3.38-2.7-5.91-5.68-7.84-8.09-5.24-16.16-10.53-24.04-16.07-3.52-2.47-7.09-3.1-11.09-2.11-8.79,2.18-17.57,4.38-26.34,6.67-1.55,.41-2.43,.14-3.32-1.22-4-6.12-8.11-12.16-12.14-18.26-1.93-2.92-4.19-5.23-7.78-6.18-3.85-1.02-7.57-2.48-11.35-3.74-10.87-3.63-21.77-7.19-32.6-10.93-2.67-.92-5.95-1.79-7.56-3.79-8-9.99-15.64-20.27-23.16-30.63-2.93-4.03-6.5-5.87-11.39-5.82-9.5,.1-19,.11-28.5-.04-1.79-.03-3.79-.64-5.31-1.58-5.36-3.34-10.55-6.95-15.81-10.44-1.8-1.2-3.61-2.38-5.42-3.55-6.41-4.14-11.27-3.09-15.33,3.4-13.49,21.54-26.96,43.09-40.44,64.63-2.37,3.79-8.99,3.86-11.45,.17-4.52-6.78-8.92-13.64-13.66-20.25-1.31-1.83-3.47-3.77-5.54-4.2-9.44-1.97-18.99-3.44-28.5-5.04-8.37-1.41-16.79-2.56-25.1-4.23-4.58-.92-8.09,.14-11.3,3.36-15.43,15.5-31.02,30.85-46.31,46.48-3.37,3.44-6.74,5.25-11.55,4.68-1.9-.23-3.2-.69-4.29-2.37-4.39-6.76-8.88-13.45-13.4-20.13-3.54-5.24-7.93-6.29-13.6-3.46-10.4,5.19-20.87,10.27-31.21,15.57-2.75,1.41-5.46,3.19-7.62,5.36-1.49,1.49-2.06,3.93-2.95,5.99-7.41,17.23-14.83,34.45-22.14,51.72,0,.02-.02,.03-.02,.05,6.77-.4,13.54-1.39,20.31-.67Z"/><path class="cls-8" d="M645.19,424.87c0-13.07,.03-26.14-.02-39.21-.03-6.31-3.87-10.09-10.12-10.14-2.67-.02-5.33-.06-8,0-1.26,.03-2-.28-2.46-1.19-.04-.07-.06-.16-.1-.23-6.34,0-12.39,1.68-18.91-.06,.02,.38-.03,.82-.03,1.46-1.02,0-1.91,0-2.8,0-98.02,0-196.05,0-294.07,.06,.21,.04,.42,.07,.63,.11-.21-.04-.42-.08-.63-.11-.89,0-1.78,0-2.68,0-1.21,0-2.06-.25-2.73-.76-7.1-.68-14.2-.26-21.29-.15,.04,.17,.08,.36,.13,.56H101.32c.33-.86,.61-1.63,.9-2.36-6.77-.72-13.54,.28-20.31,.67-.7,1.61-1.62,2.01-3.16,1.99-2.83-.04-5.67-.02-8.5,0-7.08,.03-10.7,3.65-10.72,10.8-.03,8.58,0,17.15,0,25.73,0,8.49,.16,16.99-.06,25.47-.15,5.92,3.23,11.42,10.98,11.14,8.4-.31,16.83-.03,25.24-.09,2-.01,2.97,.65,3.4,2.71,.73,3.49,1.83,6.9,2.77,10.34,2.33,8.49,4.66,16.97,6.98,25.46,2.23,8.17,4.44,16.35,6.67,24.51,2.28,8.33,4.59,16.65,6.87,24.98,2.25,8.25,4.46,16.51,6.7,24.76,2.37,8.73,4.82,17.45,7.03,26.22,.33,1.31-.11,3.14-.85,4.32-4.87,7.76-8.35,16.08-10.15,25.03-2.17,10.74-1.9,21.44,.8,32.14,2.87,11.35,8.04,21.43,15.71,30.19,11.21,12.81,25.19,20.94,42.01,23.99,17.54,3.18,34.21,.51,49.61-8.4,16.42-9.5,27.65-23.48,33.37-41.6,.96-3.04,2.33-3.53,5.06-3.53,53.83,.06,107.65,.04,161.48,.05,.75,0,1.59-.2,2.23,.07,.8,.34,1.88,.95,2.08,1.65,3.1,10.82,8.43,20.38,15.96,28.71,11.94,13.21,26.79,21.33,44.41,23.63,19.99,2.61,38.37-2.01,54.47-14.46,17.19-13.29,26.68-30.97,28.52-52.48,1.4-16.32-2.72-31.48-11.63-45.31-.67-1.03-.92-2.72-.62-3.92,1.52-6.21,3.29-12.35,4.95-18.52,2.25-8.34,4.44-16.69,6.72-25.02,2.67-9.77,5.43-19.51,8.1-29.29,2.66-9.77,5.22-19.57,7.89-29.34,3.1-11.37,6.35-22.71,9.36-34.11,.56-2.14,1.49-2.82,3.58-2.81,8.58,.07,17.17-.14,25.75,.08,6.71,.17,10.38-4.89,10.28-10.28-.08-4.49-.01-8.99-.01-13.49ZM196.78,686.19c-30.5,.01-54.81-24.75-54.63-55.08,.17-30.23,24.63-54.49,54.8-54.37,29.99-.12,54.84,24.22,54.7,54.77-.13,30.97-24.77,54.67-54.87,54.68Zm310.87,.07c-30.06-.19-54.62-24.81-54.66-54.79-.04-30.22,24.71-54.81,55.08-54.72,30.32,.08,54.65,24.58,54.52,54.9-.13,30.22-24.86,54.81-54.94,54.61Zm63.47-178.41c-1.7,6.76-3.61,13.47-5.45,20.2-1.86,6.81-3.76,13.61-5.62,20.41-2.12,7.77-4.2,15.55-6.33,23.32-.53,1.94-1.61,1.41-2.8,.56-5.51-3.92-11.36-7.17-17.75-9.46-11.73-4.2-23.66-5.62-36.08-3.7-10.72,1.65-20.56,5.35-29.53,11.31-13.65,9.08-23.27,21.37-28.75,36.87-2.4,6.8-3.85,13.78-3.94,20.98-.03,2.32-.91,3.03-3.12,3.01-9.17-.07-18.33-.03-27.5-.03-43.33,0-86.66,0-130,0-4.19,0-4.1-.01-4.45-4.19-2.37-28.35-16.28-49.03-41.76-61.65-15.39-7.62-31.61-9.09-48.36-5.06-9.18,2.21-17.53,6.11-25.22,11.5-2.67,1.87-2.89,1.74-3.71-1.28-2.67-9.77-5.43-19.52-8.1-29.29-2.67-9.77-5.27-19.56-7.91-29.34-.56-2.08-1.1-4.18-1.75-6.24-.46-1.44,.03-2.07,1.45-2.12,1-.04,2-.03,3-.03,71.67,0,143.33,0,215,0s143.5,0,215.25,0c4.34,0,4.5,.04,3.44,4.24Zm14.66-53.33c-2.49,9.22-5.03,18.42-7.52,27.64-.59,2.18-1.61,3.17-4.17,3.17-147.8-.07-295.61-.07-443.41,0-2.52,0-3.61-.91-4.2-3.11-2.83-10.5-5.71-20.99-8.54-31.49-.14-.53-.02-1.13-.02-1.91h469.15c-.46,2.06-.8,3.91-1.28,5.71Zm37.98-24.27c-.74-.09-1.5-.01-2.25-.01-179.63,0-359.26,0-538.89,0-5.17,0-4.63,.48-4.64-4.74-.02-9.32,0-18.65,0-27.97q0-3.59,3.72-3.6c90.23,0,180.46,0,270.69,0s180.3,0,270.44,0q3.91,0,3.92,3.92c0,9.82-.07,19.65,.05,29.47,.03,2.35-.79,3.2-3.04,2.94Z"/><path class="cls-6" d="M352.43,503.61c71.75,0,143.5,0,215.25,0,4.34,0,4.5,.04,3.44,4.24-1.7,6.76-3.61,13.47-5.45,20.2-1.86,6.81-3.76,13.61-5.62,20.41-2.12,7.77-4.2,15.55-6.33,23.32-.53,1.94-1.61,1.41-2.8,.56-5.51-3.92-11.36-7.17-17.75-9.46-11.73-4.2-23.66-5.62-36.08-3.7-10.72,1.65-20.56,5.35-29.53,11.31-13.65,9.08-23.27,21.37-28.75,36.87-2.4,6.8-3.85,13.78-3.94,20.98-.03,2.32-.91,3.03-3.12,3.01-9.17-.07-18.33-.03-27.5-.03-43.33,0-86.66,0-130,0-4.19,0-4.1-.01-4.45-4.19-2.37-28.35-16.28-49.03-41.76-61.65-15.39-7.62-31.61-9.09-48.36-5.06-9.18,2.21-17.53,6.11-25.22,11.5-2.67,1.87-2.89,1.74-3.71-1.29-2.67-9.77-5.43-19.52-8.1-29.29-2.67-9.77-5.27-19.56-7.91-29.34-.56-2.08-1.1-4.18-1.75-6.24-.46-1.44,.03-2.07,1.45-2.12,1-.04,2-.03,3-.03,71.67,0,143.33,0,215,0Z"/><path class="cls-5" d="M605.31,374.68h.26c.02-.38,.03-.68-.04-.96-1.29-5.24-2.53-10.5-3.97-15.7-.49-1.75-1.07-3.97-2.38-4.92-6.05-4.39-12.35-8.43-18.62-12.51-.74-.48-1.93-.72-2.77-.51-8.24,1.97-16.47,4.03-24.69,6.11-12.33,3.12-24.63,6.31-36.97,9.37-2.89,.72-5.86,1.39-8.81,1.49-4.39,.15-7.79-3.28-8.46-7.93-.56-3.9,2-8.26,5.78-9.46,3-.96,6.09-1.67,9.14-2.46,5.05-1.3,10.11-2.58,15.87-4.05-3.33-4.86-6.31-9.23-9.33-13.57-.22-.31-.64-.55-1.01-.68-3.78-1.28-7.56-2.54-11.34-3.79-10.56-3.5-21.15-6.94-31.67-10.56-1.79-.62-2.93-.43-4.19,.88-2.83,2.94-5.74,5.8-8.64,8.67-4.49,4.46-8.9,9.01-13.53,13.31-3.18,2.95-6.99,3.17-10.62,1.14-3.24-1.81-5.19-5.37-4.22-9.32,.55-2.26,2.03-4.54,3.66-6.26,6.03-6.32,12.27-12.45,18.51-18.57,1.48-1.45,1.61-2.53,.31-4.22-5.63-7.32-11.17-14.7-16.63-22.14-1.29-1.76-2.76-2.31-4.87-2.29-9.25,.09-18.5,0-27.75,.06-2.69,.02-5.01-.67-7.24-2.2-5.21-3.57-10.51-7.01-15.78-10.48-2.66-1.75-2.74-1.72-4.4,.91-3.97,6.33-7.93,12.68-11.89,19.02-7.3,11.7-14.58,23.41-21.95,35.06-1.01,1.6-.91,2.63,.44,3.87,1.9,1.74,3.66,3.63,5.49,5.45,4.94,4.94,9.95,9.81,14.79,14.84,4.33,4.51,3.81,10.69-.99,14.11-3.9,2.78-8.37,2.33-12.2-1.45-7.4-7.3-14.75-14.65-22.05-22.05-1.45-1.47-2.97-2.2-5.06-2.13-3.5,.12-7,.08-10.5,.01-3.98-.07-7.16-1.51-9.44-5.04-4.31-6.71-8.98-13.19-13.22-19.94-1.65-2.64-3.76-3.73-6.63-4.11-3.88-.51-7.73-1.19-11.59-1.82-9.19-1.51-18.39-2.99-27.58-4.57-2.12-.36-3.56,.29-5.06,1.8-16.02,16.1-32.13,32.11-48.16,48.2-2.45,2.45-5.22,3.7-8.68,3.63-3.33-.07-6.67,.12-10-.05-2.38-.12-4.11,.71-5.73,2.38-4.22,4.36-8.51,8.65-12.84,12.91-3.14,3.08-7.47,3.91-10.76,2.22-5.84-3.02-7.17-9.84-2.67-14.66,3.63-3.89,7.46-7.58,11.26-11.31,1.2-1.18,1.47-2.19,.43-3.67-2.38-3.4-4.66-6.88-6.9-10.38-1.1-1.72-2.32-1.76-4-.9-5.62,2.87-11.23,5.77-16.95,8.45-4.22,1.98-7.53,4.29-9.41,9.07-5.17,13.12-10.96,26-16.49,38.97-.43,1.01-.8,2.05-1.27,3.28h180.79c-.2-.78-.24-1.3-.45-1.73-2.23-4.45-4.65-8.82-6.68-13.36-1.07-2.41-2.57-3.01-5.03-2.99-11.67,.11-23.33,.07-35,.01-1.72,0-3.57-.11-5.12-.75-3.99-1.67-6.15-5.82-5.39-9.69,.94-4.77,4.39-7.8,9.54-7.83,14.75-.1,29.5-.07,44.25-.02,4.36,.02,7.64,1.98,9.62,5.96,4.62,9.29,9.3,18.56,13.86,27.88,.93,1.9,1.93,2.86,4.29,2.86,98.92-.07,197.83-.06,296.75-.06,.89,0,1.78,0,2.8,0,0-.32,.01-.59,.02-.83h-.26Z"/><path class="cls-2" d="M352.39,393.93c90.15,0,180.3,0,270.44,0q3.91,0,3.92,3.92c0,9.82-.07,19.65,.05,29.47,.03,2.35-.79,3.2-3.04,2.94-.74-.09-1.5-.01-2.25-.01-179.63,0-359.26,0-538.89,0-5.17,0-4.63,.48-4.64-4.74-.02-9.32,0-18.65,0-27.97q0-3.59,3.72-3.6c90.23,0,180.46,0,270.69,0Z"/><path class="cls-3" d="M587.07,448.81c-.46,2.06-.8,3.91-1.28,5.71-2.49,9.22-5.03,18.42-7.52,27.64-.59,2.18-1.61,3.17-4.17,3.17-147.8-.07-295.61-.07-443.41,0-2.52,0-3.61-.91-4.2-3.11-2.83-10.5-5.71-20.99-8.54-31.49-.14-.53-.02-1.13-.02-1.91h469.15Z"/><path d="M508.07,576.75c30.32,.08,54.65,24.58,54.52,54.9-.13,30.22-24.87,54.81-54.94,54.61-30.06-.19-54.62-24.81-54.66-54.79-.04-30.22,24.71-54.81,55.08-54.72Zm-.51,18.22c-20.18-.05-36.48,16.69-36.35,36.89,.13,19.89,17.05,36.42,36.94,36.22,20.19-.2,36.35-16.88,36.23-37.06-.11-19.87-16.74-36.49-36.83-36.05Z"/><path d="M196.95,576.74c29.99-.12,54.84,24.22,54.7,54.77-.13,30.97-24.77,54.67-54.87,54.68-30.5,.01-54.81-24.75-54.63-55.08,.17-30.23,24.63-54.49,54.8-54.37Zm-36.59,54.62c-.05,20.2,16.37,36.7,36.55,36.72,19.9,.02,36.66-16.61,36.59-36.56-.07-20.2-16.41-36.68-36.69-36.57-20.25,.11-36.41,16.14-36.46,36.42Z"/><path class="cls-7" d="M507.56,594.97c20.08-.45,36.72,16.18,36.83,36.05,.11,20.18-16.04,36.86-36.23,37.06-19.89,.2-36.81-16.33-36.94-36.22-.13-20.2,16.17-36.93,36.35-36.89Zm.25,54.7c9.91,.01,18.38-8.43,18.33-18.25-.06-9.92-8.54-18.35-18.37-18.26-9.81,.09-18.11,8.41-18.14,18.19-.03,9.96,8.26,18.31,18.19,18.32Z"/><path class="cls-7" d="M160.36,631.36c.05-20.27,16.21-36.31,36.46-36.42,20.28-.11,36.62,16.38,36.69,36.57,.07,19.96-16.69,36.59-36.59,36.56-20.19-.03-36.6-16.52-36.55-36.72Zm54.75,.14c0-9.93-8.33-18.31-18.24-18.35-9.88-.04-18.29,8.42-18.23,18.35,.05,9.85,8.3,18.12,18.12,18.16,9.97,.04,18.35-8.25,18.35-18.16Z"/><path d="M507.81,649.67c-9.92-.01-18.22-8.37-18.19-18.32,.03-9.78,8.33-18.1,18.14-18.19,9.83-.09,18.31,8.34,18.37,18.26,.06,9.82-8.42,18.26-18.33,18.25Z"/><path d="M215.11,631.5c0,9.91-8.39,18.21-18.35,18.16-9.82-.04-18.06-8.31-18.12-18.16-.05-9.93,8.35-18.39,18.23-18.35,9.91,.04,18.24,8.42,18.24,18.35Z"/></g></g></g></svg>