<?xml version="1.0" encoding="UTF-8"?><svg id="Layer_2" xmlns="http://www.w3.org/2000/svg" viewBox="0 0 704.67 704.98"><defs><style>.cls-1{fill:none;}.cls-2{fill:#6a1b17;}.cls-3{fill:#fff;}.cls-4{fill:#9f7d6b;}.cls-5{fill:#c1c1c0;}.cls-6{fill:#735d50;}.cls-7{fill:#8e843f;}.cls-8{fill:#b7ae69;}.cls-9{fill:#a9a048;}.cls-10{fill:#aeadad;}.cls-11{fill:#cb3736;}.cls-12{fill:#cfcfce;}.cls-13{fill:#244f2d;}.cls-14{fill:#459359;}.cls-15{fill:#644c42;}.cls-16{fill:#635128;}.cls-17{fill:#30201a;}</style></defs><g id="Layer_1-2"><g><rect class="cls-1" width="704.67" height="704.67"/><g><g id="hilqpv.tif"><g><path class="cls-2" d="M157.54,364.36c-.2-24.72-.42-49.44-.58-74.16-.02-2.41,.21-4.82,.41-7.23,.12-1.44-.22-2.32-1.76-2.77-2.71-.79-5.39-1.67-8.01-2.72-3.16-1.26-4.75-3.67-4.83-7.15-.17-7.4-.73-14.81-.6-22.21,.2-10.59,4.26-14.41,14.59-16.85,12.82-3.04,25.73-2.84,38.71-2.74,5.74,.05,11.48-.48,17.22-.61,2.35-.05,3.14-1.12,2.82-3.28-.5-3.37-.91-6.76-1.56-10.1-1.75-8.9-2.43-17.84-.68-26.78,.74-3.8,1.92-7.6,3.54-11.11,2.43-5.25,8.09-7.51,14.08-6.63,7.92,1.16,14.75,4.58,20.64,9.8,4.16,3.68,8.04,7.71,11.83,11.79,1.78,1.92,3.18,2.16,5.25,.59,4.23-3.19,8.89-5.12,14.37-4.58,4.15,.41,7.57,2.47,10.84,4.72,1.87,1.29,3,1,4.46-.49,4.48-4.58,9.02-9.1,13.63-13.54,1.26-1.22,1.7-2.48,1.61-4.19-.43-8.31-.82-16.63-1.09-24.95-.05-1.63-.93-2.26-2.14-2.61-5.11-1.48-6.8-5.35-7.42-10.14-1.06-8.21,.12-16.28,1.4-24.34,.51-3.2,.96-6.44,1.88-9.53,1.65-5.53,5.72-8.55,11.25-9.79,8.84-1.99,17.82-2.11,26.81-2.2,4.33-.05,8.66,.03,12.98-.09,3.24-.09,3.91-.74,3.37-3.99-.77-4.58-1.87-9.1-2.98-13.62-2.05-8.35-4.04-16.74-2.59-25.38,.67-3.97,1.98-7.87,3.43-11.64,.89-2.31,2.99-3.72,5.64-3.99,6.55-.67,12.79,.48,18.66,3.37,9.96,4.91,19.96,9.78,29.74,15.02,3.77,2.02,7.15,4.86,10.45,7.65,2.15,1.82,3.53,1.52,5.72-.01,3.36-2.35,6.93-4.76,10.77-5.99,6.93-2.22,13.95-1.99,20.36,2.22,1.32,.87,2.79,1.54,3.98,2.56,2.13,1.83,3.55,1.13,5.48-.58,11.96-10.61,24.52-20.44,38.91-27.61,2.9-1.45,6.24-2.43,9.46-2.74,5.55-.52,9.51,2.61,11.14,7.98,2.54,8.39,3.33,17.01,2.47,25.67-.96,9.59-2.42,19.13-3.66,28.7-.43,3.35-.33,3.51,3.2,3.44,16.31-.32,32.63-.66,48.94-1.02,3.74-.08,7.28,.3,10.28,2.9,3.34,2.89,4.28,6.86,4.82,10.91,1.56,11.62,.94,23.26-.08,34.89-.4,4.59-2.37,7.88-7.02,9.21-2.3,.66-3.09,2.22-3.3,4.63-.77,8.69-1.72,17.37-2.78,26.03-1.17,9.57-2.53,19.12-3.81,28.68-1.27,9.48-2.56,18.95-3.83,28.43-1.19,8.9-2.42,17.8-3.53,26.71-1.27,10.15-2.48,20.31-3.65,30.47-.94,8.18-1.79,16.37-2.68,24.56-.81,7.52-1.66,15.04-2.41,22.57-.66,6.62-1.37,13.25-1.75,19.89-1.23,21.6-2.16,43.22-3.54,64.81-.48,7.43-1.7,14.85-3.05,22.19-.77,4.2-4.12,6.5-8.27,6.78-5.46,.37-10.97,.59-16.43,.27-17.2-1.02-34.38-2.31-51.56-3.55-3.15-.23-6.27-.87-9.41-.99-1.1-.04-2.68,.6-3.28,1.46-2.03,2.89-4.61,4-8.08,3.96-8.48-.1-16.96,.13-25.44-.08-2.23-.05-4.75-.73-6.58-1.95-4.66-3.1-9.86-3.83-15.16-4.32-6.33-.58-6.2-.48-7.21,5.92-.55,3.5-1.25,7.08-2.59,10.34-2.35,5.73-7.18,8.88-13.05,10.17-12.1,2.65-24.39,3.06-36.75,2.67-14.3-.46-28.61-.69-42.92-.75-2.99-.01-5.99,1.17-8.99,1.8-.97,.2-1.95,.54-2.93,.55-9.24,.07-18.48,.08-27.72,.09-.5,0-1.02-.03-1.48-.19-10.44-3.74-21.19-2.21-31.87-1.89-6.06,.18-12.14-.27-18.17,.18-11.36,.84-22.64,.33-33.85-1.37-3.98-.6-7.98-1.79-11.69-3.38-5.93-2.53-7.58-8.1-8.91-13.85-2.38-10.31-2.72-20.73-2.64-31.25,.16-21.22,.05-42.45,.05-63.68-.28,0-.57,0-.85,0Zm269.62,33.22c-.36,.01-.73,.02-1.09,.03,.43,15.22,.85,30.44,1.28,45.67,.05,1.97,.83,3.36,2.92,3.75,.82,.15,1.63,.52,2.44,.5,7.8-.21,15.61-.44,23.41-.79,.55-.02,1.43-.92,1.52-1.52,1.08-6.72,2.11-13.46,3-20.21,.27-2.05-.1-4.17,.11-6.23,1.23-11.66,2.77-23.29,3.81-34.97,2.19-24.57,2.84-49.2,2.19-73.85-.3-11.48-1.66-22.93-1.83-34.4-.42-28.55-.43-57.1-.61-85.65-.01-2.33-.05-4.66-.06-6.99-.03-7.32-.29-14.65,0-21.95,.71-18.29,1.69-36.57,2.54-54.86,.21-4.46-1.5-7.17-5.75-8.1-10.99-2.42-21.99-1.81-32.9,.66-.75,.17-1.65,1.17-1.85,1.95-.76,2.89-1.56,5.82-1.81,8.78-.85,10.28-2.01,20.57-2.08,30.87-.11,15.89,.82,31.78,.87,47.68,.12,38.3,.22,76.6-.13,114.9-.19,20.6,1.16,41.08,2.62,61.58,.78,11.03,.98,22.1,1.43,33.16Zm84.46-245.96c-.16-.28-.32-.57-.48-.85-1.39,0-2.78-.02-4.17,0-9.23,.19-18.47,.39-27.7,.59-1.58,.03-3.16,.12-4.74,.06-1.86-.07-2.38,.73-2.35,2.55,.06,4.91-.08,9.82-.18,14.73-.07,3.16-.27,6.32-.3,9.47-.08,8.56-.12,17.11-.15,25.67,0,2.74-.05,5.49,.18,8.22,.06,.69,1.01,1.75,1.68,1.86,3.64,.63,7.42,.65,10.98,1.57,6.57,1.7,12.13,5.04,15.13,11.54,1.49,3.24,2.95,6.5,4.26,9.81,4.95,12.5,3.48,24.19-5.06,34.63-5.52,6.75-12.63,11.47-20.91,14.34q-3.92,1.36-3.88,5.38c.18,19.31,.39,38.62,.47,57.93,.01,2.5,.28,4.18,3.29,4.14,1.05-.02,2.12,.41,3.16,.69,7.16,1.96,13.54,5.11,17.5,11.79,3.42,5.77,5.93,11.97,6.74,18.61,.48,3.96,.77,8.44-.6,12.02-3.62,9.52-10.29,16.9-19.47,21.48-4.56,2.27-9.64,3.47-14.45,5.26-.72,.27-1.68,1.02-1.78,1.67-.86,5.33-1.56,10.7-2.26,16.05-.24,1.81,.44,2.76,2.46,2.81,11.9,.29,23.8,.69,35.7,.98,3.35,.08,3.94-.58,4.6-3.92,.77-3.91,1.37-7.87,2.49-11.68,2.91-9.86,8.36-18.04,17.68-22.79,5.28-2.69,11.14-4.21,16.68-6.4,.76-.3,1.64-1.4,1.71-2.19,.86-10.45,1.45-20.92,2.37-31.36,1.33-15,2.84-29.98,4.34-44.96,1.34-13.41,2.69-26.81,4.22-40.2,.33-2.89-.74-4.12-3.25-5.12-5.01-1.98-9.7-4.65-12.55-9.42-5.5-9.18-7.53-19.2-4.23-29.45,4.43-13.77,12.75-24.37,27.26-28.82,2.41-.74,3.05-2.21,3.32-4.56,1.14-10.25,2.51-20.47,3.77-30.7,.85-6.85,1.65-13.71,2.48-20.56,.14-1.17,.13-2.24-1.47-2.27-5.96-.11-11.93-.35-17.89-.25-2.43,.04-2.65,.87-1.53,3.09,4.48,8.89,4.11,18.23,1.05,27.17-3.68,10.76-11.19,18.77-21.29,24.09-4.56,2.4-9.33,4.56-14.76,2.82-7.99-2.55-14.63-7.05-19.64-13.81-5.44-7.35-6.73-15.25-3.53-24,2.32-6.33,6.6-10.82,11.85-14.68,1.2-.88,2.17-2.05,3.25-3.09Zm-252.04,196.45c.33,0,.66,0,.99,0,0,8.24-.02,16.48,0,24.72,.07,26.23,.11,52.45,.28,78.68,.03,4.81,.49,9.63,.9,14.43,.33,3.85,2.8,5.64,6.47,6,.91,.09,1.82,.19,2.74,.2,6.74,.02,13.49,.03,20.23-.01,1.32,0,2.67-.15,3.95-.44,3.43-.78,4.87-2.24,5.23-5.76,.5-4.88,1.06-9.78,1.09-14.67,.15-25.72,.07-51.43,.2-77.15,.11-23.23,.53-46.45,.56-69.68,.02-23.55-.25-47.11-.47-70.66-.04-4.04-1.04-4.95-5.01-5.31-10.55-.95-21.1-1.03-31.65,.08-3.71,.39-4.73,1.44-4.89,5.22-.25,5.91-.58,11.81-.59,17.72-.06,32.22-.03,64.44-.03,96.66Zm269.48-205.76c0-.13,0-.26,0-.39,16.48-.33,32.96-.66,49.44-.99,8.77-.17,7.41-1.35,8.25-6.96,.05-.33,.17-.66,.17-.98-.05-9.39,.27-18.8-.32-28.15-.35-5.46-2.05-6.45-7.57-6.37-7.4,.1-14.8,.65-22.2,.71-16.57,.13-33.14,.21-49.7,.05-10.07-.1-20.13-.65-30.19-1.07-1.73-.07-2.53,.24-2.57,2.24-.23,12.73-.59,25.47-.88,38.2-.09,4.02,.15,4.39,4.16,4.36,17.15-.16,34.29-.42,51.44-.65ZM198.86,236.55v.19c-5.99,0-11.99,.09-17.98-.02-8.41-.15-16.56,1.48-24.65,3.45-4.84,1.18-5.69,2.45-6.15,7.42-.07,.75-.21,1.48-.27,2.23-.55,6.31-1.12,12.61,.39,18.88,.38,1.56,.86,2.87,2.71,3.11,3.05,.4,6.09,.88,9.14,1.25,6.77,.82,13.56,1.5,20.32,2.42,8.4,1.14,16.75,3.03,25.18,3.59,14.1,.95,28.26,1.15,42.4,1.57,3.29,.1,3.69-.5,3.75-3.78,.22-12.07,.45-24.14,.67-36.21,.03-1.66,.05-3.33,.02-4.99-.04-2.29-.88-3.46-3.51-3.11-6.1,.8-12.22,1.56-18.36,2-11.21,.8-22.43,1.35-33.65,2.01Zm108.91,19.16c.14,0,.29,0,.43,0,0,2.41-.02,4.83,0,7.24,.04,4.66-.01,9.33,.21,13.98,.17,3.58,.55,3.76,4.08,3.71,3.08-.04,6.16-.11,9.24-.12,13.32-.05,26.6-.24,39.82-2.33,10.92-1.72,21.92-2.96,32.88-4.42,4.45-.59,8.91-1.16,13.35-1.82,3.74-.56,4.51-1.28,4.54-4.95,.06-6.57-.04-13.15-.19-19.72-.08-3.32-1.63-5.58-5.03-6.56-8.5-2.44-17.04-3.97-25.99-4.07-15.72-.17-31.43-1-47.13-1.83-7.72-.41-15.4-1.44-23.1-2.24-2.24-.23-3.17,.62-3.15,2.91,.07,6.74,.03,13.48,.03,20.22Zm64.42-116.19c10.06,.19,24.87,.46,39.68,.75,3.36,.06,3.52-.06,3.87-3.34,1.16-10.9,.68-21.94,2.94-32.77,.8-3.84,.42-3.94-3.61-4.16-1.24-.07-2.49-.08-3.74-.08-10.73-.02-21.47,.01-32.2-.07-13.89-.11-27.79-.51-41.68-.37-5.87,.06-11.74,1.07-17.58,1.86-2.92,.39-5.07,2.01-5.68,5.15-.47,2.44-1.16,4.87-1.39,7.33-.62,6.69-1.18,13.39-1.47,20.1-.13,2.96,1.25,4.47,3.47,4.66,4.47,.38,8.95,.86,13.43,.9,13.07,.12,26.13,.04,43.96,.04Zm24.53,297.33c-.21-.04-.42-.08-.63-.12,0-.42,.02-.83,0-1.25-.18-3.16,.11-6.08-3.62-8.16-21.16-11.81-42.12-23.97-63.19-35.93-5.62-3.19-11.35-6.22-17.12-9.13-2.91-1.47-3.76-.88-4.32,2.27-.15,.82-.42,1.64-.39,2.46,.34,10.72,.65,21.43,1.2,32.14,.06,1.17,1.32,2.68,2.43,3.33,8.46,4.94,17.14,9.49,25.51,14.56,15.46,9.37,31.39,18.06,45.44,29.61,.67,.55,1.86,.81,2.74,.69,3.76-.52,6.78-2.49,7.57-6.26,1.69-8.02,2.94-16.13,4.37-24.21Zm-141.8-40.99c-.18-3.06-.21-7.06-.71-11.01-.47-3.76-1.24-4.17-4.69-2.41-5.47,2.78-10.82,5.79-16.17,8.81-21.6,12.21-43.18,24.46-64.78,36.67-1.62,.92-2.25,2.13-2.34,4-.44,8.72,.92,17.25,2.52,25.75,.33,1.77,.98,3.55,1.82,5.14,2.47,4.69,6.73,5.43,11.08,2.47,10.76-7.35,21.41-14.9,32.51-21.7,12.24-7.5,24.94-14.23,37.39-21.38,.92-.53,1.94-1.75,2.01-2.72,.56-7.55,.9-15.11,1.36-23.61Zm140.46-17.43c.46-1.79,.94-2.88,.99-3.98,.41-9.55,.71-19.11,1.13-28.66,.1-2.3-.87-3.54-2.88-4.64-16.69-9.07-33.36-18.18-49.96-27.43-10.44-5.82-20.72-11.93-31.08-17.88-4.23-2.43-4.9-2.18-4.9,2.68,0,10.64,.3,21.29,.42,31.93,.02,1.73,1.01,2.49,2.34,3.15,5.05,2.51,10.15,4.95,15.13,7.59,18.04,9.55,36.06,19.13,54.05,28.77,4.81,2.58,9.47,5.42,14.75,8.46Zm-228.97-.1c1.36-.72,2.18-1.13,2.97-1.57,12.31-6.89,24.5-14.01,36.96-20.61,14.66-7.76,29.53-15.11,44.36-22.55,2.11-1.06,2.98-2.29,2.94-4.76-.16-10.65-.06-21.3-.07-31.95,0-2.84-.78-3.33-3.21-1.95-4.98,2.82-9.91,5.75-14.92,8.53-22.77,12.66-45.54,25.31-68.35,37.88-2.14,1.18-2.93,2.67-2.83,4.99,.41,9.39,.73,18.79,1.16,28.18,.05,1.16,.59,2.31,.99,3.8Zm225.94-228.93c1.89,2.47,3.37,4.27,4.7,6.17,3.41,4.84,5.34,10.21,4.73,16.16-.9,8.77-3.54,16.96-9.77,23.51-7.3,7.68-15.99,12.06-26.84,9.42-3.89-.95-7.55-2.92-11.26-4.56-2.82-1.25-3.17-1.17-3.82,1.82-.18,.81-.27,1.64-.4,2.46-.97,6.16-1.89,12.33-2.94,18.47-.71,4.13-.3,4.95,3.88,5.05,9.9,.25,19.81,.61,29.71,.38,10.55-.25,20.67,1.55,30.58,4.93,3.66,1.25,4.35,.86,4.62-3.01,1.85-26.47,.32-52.92-.26-79.38-.04-1.94-.73-2.58-2.7-2.49-5.14,.23-10.28,.21-15.42,.37-1.43,.05-2.86,.41-4.8,.7Zm77.3-56.72c1.3,.08,2.19,.22,3.07,.19,5.23-.21,10.46-.55,15.7-.68,8.8-.22,17.6-.35,26.4-.42,1.58-.01,2.5-.68,3.07-2.01,.46-1.07,1.01-2.12,1.26-3.24,1.57-7.12,3.27-14.23,4.54-21.41,1.63-9.26,1.25-18.56-.52-27.78-.97-5.04-3.77-6.3-8.56-4.54-6.88,2.54-12.82,6.59-18.64,10.89-8.08,5.97-16.18,11.92-24.2,17.96-.71,.53-1.43,1.84-1.27,2.6,.51,2.42,1.42,4.76,2.2,7.12,.47,1.42,1.38,1.71,2.7,1,1.61-.86,3.22-1.73,4.9-2.45,2.2-.95,4.43-1.89,6.73-2.54,.74-.21,1.74,.5,2.62,.8-.36,.79-.52,1.82-1.12,2.32-1.06,.88-2.39,1.44-3.61,2.14-1.79,1.04-3.58,2.08-5.37,3.12,.05,.28,.09,.57,.14,.85,1.5,.8,3.07,1.51,4.49,2.43,1.85,1.21,3.81,2.37,5.29,3.96,1.67,1.79,.94,3.29-1.57,3.36-1.78,.05-3.69-.1-5.35-.7-2.87-1.04-5.6-2.47-8.37-3.78-1.27-.6-2.18-.25-2.49,1.06-.73,3.12-1.33,6.28-2.04,9.73Zm-46.56-28.24c-.29-.22-.53-.44-.81-.61-14.22-8.58-28.51-17.01-44.06-23.08-3.75-1.46-7.52-2.86-11.6-2.17-1.12,.19-2.61,1.01-3.05,1.95-3.29,7-3.34,14.34-1.55,21.71,2.12,8.71,4.54,17.35,6.63,26.07,.48,1.99,1.21,2.78,3.24,2.9,15.04,.82,30.07,1.74,45.11,2.61,1.04,.06,2.09,0,3.46,0-.66-4.06-1.26-7.75-1.9-11.7-1.84,.63-3.3,1.19-4.79,1.63-4.52,1.34-9.03,2.73-13.6,3.9-1.69,.43-4.03,.49-4.24-1.74-.13-1.34,1.37-2.89,2.28-4.25,.27-.41,1-.55,1.54-.74,2.66-.95,5.34-1.84,7.97-2.85,.69-.27,1.24-.91,1.85-1.39-.65-.54-1.22-1.24-1.96-1.58-2.62-1.22-5.32-2.26-7.94-3.48-2.13-1-2.87-2.8-2.05-4.98,.82-2.17,2.78-2.3,4.63-1.78,4.07,1.13,8.12,2.36,12.13,3.72,6.04,2.03,6.02,2.09,8.64-3.62,.03-.07,.02-.16,.05-.53ZM244.14,205.92l-.23-.99c1.29-.86,2.54-2.37,3.87-2.45,3-.18,6.07,.19,9.05,.66,1.5,.24,2.54,.38,3.25-1.22,.67-1.49,1.83-2.77-.03-4.37-4.66-4.01-9.14-8.24-13.82-12.23-4.82-4.1-10.23-7.06-16.7-7.73-4.17-.43-6.62,.92-7.86,4.79-.53,1.65-.87,3.37-1.29,5.06-3.15,12.88-.11,25.23,3.28,37.54,.44,1.61,1.42,2.24,3.1,2.23,8.24-.05,16.48-.01,24.72-.05,.71,0,1.62-.1,2.08-.54,2.11-1.99,4.37-3.94,6-6.3,.64-.92-.22-2.87-.4-4.34-1,.14-2.11,.05-2.98,.46-3.13,1.47-5.97,3.65-9.74,3.37-2.6-.2-3.27-1.02-1.83-3.25,1.27-1.97,3.07-3.62,4.68-5.37,.82-.89,1.75-1.69,2.84-2.73-3.06-.98-5.53-1.77-8.01-2.56Zm65.34,2.59c1.93,1.57,3.45,2.56,4.64,3.85,1.37,1.49,2.66,3.13,3.57,4.92,.87,1.7-.08,2.49-1.98,2.58-3.75,.19-6.65-1.8-9.72-3.42-1.19-.63-2.38-1.87-3.48,.22-1.07,2.04-.77,3.65,.76,4.84,1.34,1.04,2.72,2.18,3.62,3.58,1.03,1.61,2.16,2.18,4.04,2.15,7.9-.1,15.81-.16,23.7,.03,2.43,.06,3.58-.89,4-3.01,1.51-7.65,3.33-15.26,4.31-22.97,.9-7.1-.46-14.08-3.7-20.57-1.36-2.72-2.81-3.44-5.83-3.09-6,.69-11.49,2.75-16.16,6.56-5.14,4.2-10.06,8.66-15.12,12.95-.93,.79-2.08,1.39-1.12,2.77,.94,1.35,.95,3.73,3.72,3.16,2.43-.5,4.95-.91,7.42-.83,1.57,.05,3.35,.77,4.61,1.74,1.45,1.11,.9,2.31-.9,2.78-1.84,.48-3.67,1-6.38,1.74Zm105.88,102.29l.31-.03c0-3.49,.1-6.99-.03-10.48-.12-3.53-.71-3.85-3.82-2.45-1.29,.58-2.67,1.02-3.8,1.82-.82,.58-1.73,1.6-1.84,2.52-.45,3.71-.77,7.45-.84,11.19-.46,24.61-.85,49.23-1.23,73.84-.03,1.74,.04,3.51,.33,5.22,.13,.74,.8,1.75,1.45,1.98,3.29,1.14,6.63,2.11,9.99,3.04,1.82,.5,3.13,.05,3.1-2.23-.15-14.97,.08-29.95-.53-44.9-.54-13.2-2.03-26.35-3.09-39.53Zm12.6-218.87c5.15-3.68,10.69-3.42,16.19-3.33,5.41,.09,10.82,.14,16.22,.37,1.91,.08,2.79-.62,2.99-2.44,.51-4.38,1.14-8.74,1.5-13.13,.12-1.43-.18-3.03-.75-4.34-2.52-5.81-7.42-8.71-13.25-10.33-8.07-2.23-16.64,3.29-20.1,8.92-4.07,6.62-4.8,13.87-4.08,21.38,.08,.83,.69,1.61,1.28,2.9Zm-147.41,129.82c4.54-.27,8.37-.37,12.15-.8,1.01-.12,2.62-1.14,2.74-1.94,.65-4.13,1.62-8.4,1.13-12.46-.71-5.95-5.83-8.8-10.59-11.36-1.78-.96-4.15-1.23-6.21-1.13-4.15,.2-7.03,3.07-10.01,5.57-3.74,3.13-5.32,7.08-4.48,11.96,.4,2.29,.77,4.58,1.03,6.89,.16,1.47,.75,2.23,2.3,2.34,4.22,.28,8.43,.66,11.93,.94Zm70.35-73.38c-2.08-.12-4.13-.35-6.18-.34-6.8,.05-13.6,.15-20.4,.32-1.47,.04-3.36,.21-3.28,2.24,.23,6.2,.61,12.39,1.11,18.57,.13,1.65,1.22,2.57,3.2,2.06,1.67-.43,3.44-.56,5.17-.69,5.12-.39,9.9-1.22,10.98-7.5,.03-.15,.18-.28,.27-.42,2.98-4.65,5.96-9.3,9.13-14.24Zm-189.09,145.47c.15,0,.3,.01,.45,.02,0,2.74-.08,5.49,.03,8.22,.07,1.82,1.05,2.29,2.69,1.37,1.74-.97,3.52-1.86,5.28-2.79,7.92-4.18,15.86-8.33,23.74-12.57,.78-.42,1.28-1.37,1.91-2.07-.75-.4-1.47-1.04-2.26-1.16-9.37-1.37-18.75-2.63-28.12-4.01-1.79-.26-2.67,.2-2.8,2.06-.26,3.64-.6,7.28-.91,10.92Zm203.37-7.77c1.29,.9,1.91,1.44,2.62,1.81,5.42,2.86,10.88,5.66,16.29,8.54,4.16,2.22,8.24,4.61,12.41,6.81,2.73,1.44,3.43,1.05,3.43-1.92,0-5.81-.08-11.63-.21-17.44-.07-3.21-.31-3.41-3.57-2.96-9.29,1.28-18.57,2.62-27.85,3.98-.83,.12-1.62,.6-3.12,1.18Z"/><path class="cls-8" d="M427.16,397.58c-.46-11.05-.65-22.13-1.43-33.16-1.45-20.51-2.8-40.99-2.62-61.58,.35-38.3,.25-76.6,.13-114.9-.05-15.89-.98-31.79-.87-47.68,.07-10.3,1.22-20.59,2.08-30.87,.25-2.96,1.04-5.89,1.81-8.78,.21-.78,1.11-1.78,1.85-1.95,10.91-2.47,21.91-3.08,32.9-.66,4.26,.94,5.96,3.65,5.75,8.1-.84,18.29-1.82,36.57-2.54,54.86-.28,7.31-.02,14.63,0,21.95,0,2.33,.05,4.66,.06,6.99,.18,28.55,.19,57.1,.61,85.65,.17,11.47,1.53,22.93,1.83,34.4,.65,24.65,0,49.28-2.19,73.85-1.04,11.68-2.57,23.31-3.81,34.97-.22,2.06,.16,4.18-.11,6.23-.89,6.75-1.92,13.49-3,20.21-.1,.59-.97,1.49-1.52,1.52-7.8,.35-15.6,.58-23.41,.79-.81,.02-1.62-.34-2.44-.5-2.09-.39-2.86-1.78-2.92-3.75-.42-15.22-.85-30.44-1.28-45.67,.36-.01,.73-.02,1.09-.03Z"/><path class="cls-14" d="M511.62,151.62c-1.08,1.04-2.06,2.21-3.25,3.09-5.25,3.86-9.53,8.34-11.85,14.68-3.21,8.75-1.92,16.65,3.53,24,5.01,6.76,11.65,11.26,19.64,13.81,5.43,1.74,10.2-.42,14.76-2.82,10.09-5.32,17.61-13.33,21.29-24.09,3.05-8.94,3.43-18.27-1.05-27.17-1.12-2.22-.9-3.05,1.53-3.09,5.96-.11,11.93,.14,17.89,.25,1.6,.03,1.61,1.1,1.47,2.27-.83,6.85-1.63,13.71-2.48,20.56-1.26,10.23-2.63,20.45-3.77,30.7-.26,2.35-.9,3.82-3.32,4.56-14.5,4.45-22.83,15.05-27.26,28.82-3.3,10.26-1.27,20.27,4.23,29.45,2.85,4.76,7.55,7.44,12.55,9.42,2.51,.99,3.58,2.23,3.25,5.12-1.53,13.39-2.88,26.79-4.22,40.2-1.5,14.98-3.01,29.96-4.34,44.96-.92,10.44-1.51,20.91-2.37,31.36-.06,.79-.95,1.88-1.71,2.19-5.54,2.19-11.4,3.72-16.68,6.4-9.31,4.75-14.76,12.93-17.68,22.79-1.12,3.81-1.72,7.77-2.49,11.68-.66,3.34-1.25,4-4.6,3.92-11.9-.29-23.8-.69-35.7-.98-2.02-.05-2.7-1-2.46-2.81,.71-5.36,1.41-10.72,2.26-16.05,.1-.65,1.06-1.4,1.78-1.67,4.81-1.79,9.9-2.99,14.45-5.26,9.18-4.58,15.84-11.96,19.47-21.48,1.36-3.59,1.08-8.07,.6-12.02-.81-6.63-3.32-12.84-6.74-18.61-3.96-6.68-10.34-9.83-17.5-11.79-1.04-.28-2.11-.71-3.16-.69-3.01,.04-3.28-1.64-3.29-4.14-.08-19.31-.29-38.62-.47-57.93q-.04-4.03,3.88-5.38c8.28-2.87,15.39-7.59,20.91-14.34,8.53-10.45,10-22.14,5.06-34.63-1.31-3.31-2.77-6.58-4.26-9.81-3-6.5-8.56-9.84-15.13-11.54-3.56-.92-7.34-.94-10.98-1.57-.67-.12-1.62-1.18-1.68-1.86-.23-2.73-.19-5.48-.18-8.22,.03-8.56,.06-17.11,.15-25.67,.03-3.16,.24-6.32,.3-9.47,.1-4.91,.24-9.82,.18-14.73-.02-1.82,.49-2.62,2.35-2.55,1.58,.06,3.16-.03,4.74-.06,9.23-.2,18.47-.4,27.7-.59,1.39-.03,2.78,0,4.17,0,.16,.28,.32,.57,.48,.85Zm-22.63,162.3c-.17,13.26,5.97,21.91,15.62,28.34,6.13,4.09,13.31,5.2,20.1,2.74,12.4-4.48,21.5-12.93,24.79-26.08,1.45-5.78,2.18-12.13-.55-17.86-2.56-5.37-5.55-10.6-8.91-15.5-1.48-2.16-4.17-3.85-6.67-4.85-2.71-1.09-5.82-1.3-8.78-1.58-11.81-1.13-21.28,2.94-28.26,12.73-4.96,6.97-6.72,14.86-7.33,22.06Z"/><path class="cls-12" d="M259.58,348.07c0-32.22-.03-64.44,.03-96.66,.01-5.91,.33-11.82,.59-17.72,.16-3.78,1.18-4.83,4.89-5.22,10.55-1.11,21.1-1.03,31.65-.08,3.97,.36,4.97,1.27,5.01,5.31,.22,23.55,.49,47.11,.47,70.66-.02,23.23-.44,46.45-.56,69.68-.13,25.72-.05,51.44-.2,77.15-.03,4.89-.59,9.8-1.09,14.67-.36,3.52-1.8,4.98-5.23,5.76-1.29,.29-2.63,.44-3.95,.44-6.74,.04-13.49,.03-20.23,.01-.91,0-1.83-.11-2.74-.2-3.67-.36-6.13-2.14-6.47-6-.41-4.8-.87-9.62-.9-14.43-.16-26.22-.2-52.45-.28-78.68-.02-8.24,0-16.48,0-24.72-.33,0-.66,0-.99,0Z"/><path class="cls-13" d="M529.05,142.31c-17.15,.23-34.29,.49-51.44,.65-4.01,.04-4.25-.33-4.16-4.36,.29-12.73,.66-25.47,.88-38.2,.04-2,.84-2.31,2.57-2.24,10.06,.42,20.12,.97,30.19,1.07,16.57,.16,33.13,.08,49.7-.05,7.4-.06,14.8-.61,22.2-.71,5.52-.07,7.23,.91,7.57,6.37,.59,9.35,.27,18.76,.32,28.15,0,.33-.12,.65-.17,.98-.84,5.61,.52,6.78-8.25,6.96-16.48,.33-32.96,.66-49.44,.99,0,.13,0,.26,0,.39Z"/><path class="cls-11" d="M198.86,236.55c11.22-.66,22.44-1.21,33.65-2.01,6.14-.44,12.26-1.2,18.36-2,2.63-.35,3.47,.82,3.51,3.11,.03,1.66,0,3.33-.02,4.99-.22,12.07-.45,24.14-.67,36.21-.06,3.29-.46,3.88-3.75,3.78-14.14-.42-28.29-.62-42.4-1.57-8.44-.57-16.78-2.45-25.18-3.59-6.76-.92-13.55-1.6-20.32-2.42-3.05-.37-6.09-.85-9.14-1.25-1.85-.24-2.33-1.55-2.71-3.11-1.51-6.27-.94-12.57-.39-18.88,.07-.75,.2-1.49,.27-2.23,.46-4.96,1.31-6.24,6.15-7.42,8.09-1.96,16.24-3.6,24.65-3.45,5.99,.11,11.99,.02,17.98,.02v-.19Z"/><path class="cls-11" d="M307.78,255.71c0-6.74,.05-13.48-.03-20.22-.02-2.29,.91-3.14,3.15-2.91,7.69,.8,15.38,1.83,23.1,2.24,15.7,.84,31.41,1.67,47.13,1.83,8.95,.09,17.49,1.62,25.99,4.07,3.41,.98,4.96,3.24,5.03,6.56,.15,6.57,.25,13.15,.19,19.72-.03,3.66-.8,4.38-4.54,4.95-4.44,.67-8.9,1.23-13.35,1.82-10.96,1.46-21.96,2.7-32.88,4.42-13.22,2.09-26.5,2.28-39.82,2.33-3.08,.01-6.16,.07-9.24,.12-3.53,.05-3.91-.13-4.08-3.71-.23-4.65-.17-9.32-.21-13.98-.02-2.41,0-4.83,0-7.24-.14,0-.29,0-.43,0Z"/><path class="cls-13" d="M372.19,139.52c-17.82,0-30.89,.08-43.96-.04-4.48-.04-8.96-.52-13.43-.9-2.22-.19-3.6-1.7-3.47-4.66,.29-6.71,.85-13.41,1.47-20.1,.23-2.47,.92-4.89,1.39-7.33,.61-3.14,2.77-4.75,5.68-5.15,5.84-.79,11.71-1.8,17.58-1.86,13.89-.14,27.79,.26,41.68,.37,10.73,.08,21.47,.05,32.2,.07,1.25,0,2.5,.01,3.74,.08,4.03,.23,4.41,.32,3.61,4.16-2.26,10.83-1.78,21.86-2.94,32.77-.35,3.28-.5,3.41-3.87,3.34-14.81-.29-29.62-.56-39.68-.75Z"/><path class="cls-3" d="M396.72,436.85c-1.43,8.07-2.69,16.19-4.37,24.21-.79,3.77-3.81,5.74-7.57,6.26-.88,.12-2.07-.14-2.74-.69-14.06-11.55-29.98-20.24-45.44-29.61-8.37-5.07-17.05-9.62-25.51-14.56-1.11-.65-2.37-2.16-2.43-3.33-.55-10.71-.86-21.42-1.2-32.14-.03-.82,.24-1.64,.39-2.46,.57-3.15,1.42-3.74,4.32-2.27,5.77,2.91,11.5,5.94,17.12,9.13,21.07,11.96,42.03,24.12,63.19,35.93,3.72,2.08,3.44,5,3.62,8.16,.02,.41,0,.83,0,1.25,.21,.04,.42,.08,.63,.12Z"/><path class="cls-3" d="M254.92,395.86c-.46,8.5-.8,16.06-1.36,23.61-.07,.97-1.09,2.2-2.01,2.72-12.45,7.16-25.15,13.88-37.39,21.38-11.1,6.8-21.75,14.35-32.51,21.7-4.34,2.97-8.6,2.23-11.08-2.47-.84-1.59-1.48-3.37-1.82-5.14-1.6-8.5-2.96-17.03-2.52-25.75,.1-1.87,.72-3.09,2.34-4,21.6-12.21,43.18-24.46,64.78-36.67,5.34-3.02,10.7-6.03,16.17-8.81,3.45-1.75,4.22-1.34,4.69,2.41,.49,3.95,.53,7.96,.71,11.01Z"/><path class="cls-3" d="M395.38,378.44c-5.28-3.04-9.95-5.88-14.75-8.46-17.99-9.64-36.01-19.23-54.05-28.77-4.99-2.64-10.08-5.08-15.13-7.59-1.33-.66-2.32-1.42-2.34-3.15-.12-10.65-.42-21.29-.42-31.93,0-4.86,.68-5.11,4.9-2.68,10.36,5.96,20.64,12.06,31.08,17.88,16.59,9.25,33.26,18.36,49.96,27.43,2.01,1.09,2.98,2.33,2.88,4.64-.42,9.55-.72,19.11-1.13,28.66-.05,1.11-.53,2.19-.99,3.98Z"/><path class="cls-3" d="M166.41,378.33c-.4-1.49-.93-2.64-.99-3.8-.43-9.39-.75-18.79-1.16-28.18-.1-2.32,.69-3.82,2.83-4.99,22.82-12.57,45.59-25.22,68.35-37.88,5.01-2.78,9.93-5.71,14.92-8.53,2.43-1.38,3.21-.89,3.21,1.95,0,10.65-.09,21.3,.07,31.95,.04,2.47-.83,3.7-2.94,4.76-14.83,7.44-29.7,14.78-44.36,22.55-12.46,6.6-24.65,13.72-36.96,20.61-.79,.44-1.61,.85-2.97,1.57Z"/><path class="cls-14" d="M392.34,149.4c1.94-.29,3.37-.65,4.8-.7,5.14-.17,10.29-.15,15.42-.37,1.97-.09,2.66,.56,2.7,2.49,.58,26.46,2.12,52.91,.26,79.38-.27,3.87-.95,4.26-4.62,3.01-9.91-3.38-20.03-5.18-30.58-4.93-9.89,.23-19.81-.13-29.71-.38-4.18-.1-4.6-.93-3.88-5.05,1.06-6.14,1.97-12.31,2.94-18.47,.13-.82,.22-1.65,.4-2.46,.65-2.99,1-3.07,3.82-1.82,3.71,1.64,7.36,3.61,11.26,4.56,10.85,2.64,19.54-1.74,26.84-9.42,6.23-6.55,8.87-14.73,9.77-23.51,.61-5.95-1.32-11.32-4.73-16.16-1.34-1.9-2.81-3.7-4.7-6.17Z"/><path class="cls-9" d="M469.65,92.69c.72-3.46,1.31-6.61,2.04-9.73,.3-1.31,1.22-1.66,2.49-1.06,2.77,1.3,5.5,2.74,8.37,3.78,1.66,.6,3.57,.75,5.35,.7,2.5-.08,3.24-1.57,1.57-3.36-1.48-1.59-3.45-2.75-5.29-3.96-1.42-.93-2.99-1.63-4.49-2.43-.05-.28-.09-.57-.14-.85,1.79-1.04,3.57-2.08,5.37-3.12,1.21-.7,2.55-1.26,3.61-2.14,.6-.5,.76-1.53,1.12-2.32-.88-.29-1.88-1-2.62-.8-2.3,.65-4.53,1.59-6.73,2.54-1.67,.72-3.29,1.59-4.9,2.45-1.32,.71-2.23,.42-2.7-1-.78-2.36-1.69-4.7-2.2-7.12-.16-.76,.56-2.06,1.27-2.6,8.02-6.05,16.12-11.99,24.2-17.96,5.82-4.3,11.76-8.35,18.64-10.89,4.79-1.77,7.59-.51,8.56,4.54,1.77,9.22,2.15,18.52,.52,27.78-1.26,7.18-2.97,14.28-4.54,21.41-.25,1.12-.8,2.18-1.26,3.24-.57,1.33-1.49,1.99-3.07,2.01-8.8,.08-17.6,.21-26.4,.42-5.24,.13-10.46,.47-15.7,.68-.88,.04-1.77-.1-3.07-.19Z"/><path class="cls-9" d="M423.09,64.45c-.03,.36-.02,.46-.05,.53-2.63,5.71-2.61,5.66-8.64,3.62-4.01-1.35-8.06-2.59-12.13-3.72-1.85-.51-3.81-.38-4.63,1.78-.82,2.18-.08,3.98,2.05,4.98,2.62,1.23,5.32,2.26,7.94,3.48,.74,.34,1.31,1.04,1.96,1.58-.61,.47-1.16,1.12-1.85,1.39-2.63,1.01-5.31,1.9-7.97,2.85-.54,.19-1.27,.33-1.54,.74-.91,1.36-2.41,2.91-2.28,4.25,.21,2.23,2.55,2.17,4.24,1.74,4.57-1.17,9.08-2.56,13.6-3.9,1.49-.44,2.95-1,4.79-1.63,.64,3.95,1.24,7.63,1.9,11.7-1.37,0-2.42,.05-3.46,0-15.04-.87-30.07-1.79-45.11-2.61-2.03-.11-2.76-.91-3.24-2.9-2.09-8.72-4.52-17.36-6.63-26.07-1.79-7.36-1.73-14.71,1.55-21.71,.44-.94,1.93-1.76,3.05-1.95,4.08-.69,7.85,.71,11.6,2.17,15.54,6.06,29.84,14.49,44.06,23.08,.28,.17,.52,.39,.81,.61Z"/><path class="cls-5" d="M244.14,205.92c2.47,.79,4.95,1.58,8.01,2.56-1.09,1.04-2.01,1.84-2.84,2.73-1.61,1.75-3.41,3.39-4.68,5.37-1.44,2.23-.77,3.05,1.83,3.25,3.77,.29,6.61-1.89,9.74-3.37,.87-.41,1.98-.32,2.98-.46,.18,1.48,1.03,3.43,.4,4.34-1.64,2.36-3.89,4.3-6,6.3-.46,.43-1.37,.53-2.08,.54-8.24,.04-16.48,0-24.72,.05-1.68,.01-2.66-.63-3.1-2.23-3.39-12.31-6.43-24.66-3.28-37.54,.41-1.69,.76-3.4,1.29-5.06,1.24-3.87,3.69-5.23,7.86-4.79,6.47,.67,11.87,3.63,16.7,7.73,4.69,3.98,9.16,8.22,13.82,12.23,1.86,1.6,.7,2.88,.03,4.37-.71,1.6-1.75,1.46-3.25,1.22-2.99-.47-6.05-.84-9.05-.66-1.33,.08-2.58,1.59-3.87,2.45l.23,.99Z"/><path class="cls-5" d="M309.48,208.51c2.71-.74,4.54-1.26,6.38-1.74,1.8-.47,2.35-1.67,.9-2.78-1.26-.97-3.04-1.69-4.61-1.74-2.46-.08-4.98,.33-7.42,.83-2.76,.56-2.78-1.81-3.72-3.16-.96-1.38,.19-1.98,1.12-2.77,5.06-4.29,9.98-8.76,15.12-12.95,4.67-3.81,10.16-5.87,16.16-6.56,3.02-.35,4.46,.37,5.83,3.09,3.25,6.49,4.6,13.47,3.7,20.57-.97,7.72-2.8,15.33-4.31,22.97-.42,2.12-1.57,3.06-4,3.01-7.9-.19-15.8-.13-23.7-.03-1.88,.02-3.01-.54-4.04-2.15-.9-1.4-2.28-2.54-3.62-3.58-1.53-1.19-1.83-2.79-.76-4.84,1.09-2.09,2.29-.85,3.48-.22,3.07,1.62,5.97,3.61,9.72,3.42,1.9-.1,2.85-.88,1.98-2.58-.91-1.79-2.21-3.43-3.57-4.92-1.19-1.29-2.71-2.28-4.64-3.85Z"/><path class="cls-14" d="M415.35,310.8c1.07,13.17,2.55,26.33,3.09,39.53,.61,14.95,.38,29.93,.53,44.9,.02,2.28-1.28,2.73-3.1,2.23-3.36-.92-6.7-1.9-9.99-3.04-.65-.23-1.33-1.24-1.45-1.98-.29-1.71-.36-3.48-.33-5.22,.38-24.61,.77-49.23,1.23-73.84,.07-3.74,.39-7.48,.84-11.19,.11-.92,1.02-1.94,1.84-2.52,1.13-.8,2.52-1.24,3.8-1.82,3.11-1.4,3.7-1.08,3.82,2.45,.12,3.49,.03,6.98,.03,10.48l-.31,.03Z"/><path class="cls-7" d="M427.95,91.93c-.59-1.29-1.2-2.07-1.28-2.9-.72-7.51,0-14.76,4.08-21.38,3.47-5.63,12.03-11.15,20.1-8.92,5.83,1.61,10.73,4.51,13.25,10.33,.57,1.32,.86,2.92,.75,4.34-.36,4.39-.99,8.75-1.5,13.13-.21,1.81-1.08,2.52-2.99,2.44-5.4-.23-10.81-.28-16.22-.37-5.5-.09-11.04-.34-16.19,3.33Z"/><path class="cls-10" d="M280.54,221.75c-3.51-.28-7.72-.65-11.93-.94-1.55-.1-2.14-.87-2.3-2.34-.26-2.31-.63-4.6-1.03-6.89-.84-4.87,.74-8.82,4.48-11.96,2.98-2.5,5.86-5.38,10.01-5.57,2.07-.1,4.44,.18,6.21,1.13,4.76,2.56,9.88,5.41,10.59,11.36,.49,4.06-.48,8.33-1.13,12.46-.13,.8-1.73,1.82-2.74,1.94-3.79,.43-7.61,.53-12.15,.8Z"/><path class="cls-14" d="M350.89,148.37c-3.17,4.94-6.15,9.59-9.13,14.24-.09,.14-.24,.27-.27,.42-1.08,6.28-5.86,7.11-10.98,7.5-1.73,.13-3.5,.26-5.17,.69-1.98,.51-3.06-.4-3.2-2.06-.5-6.18-.88-12.37-1.11-18.57-.08-2.03,1.81-2.2,3.28-2.24,6.8-.17,13.6-.27,20.4-.32,2.05-.01,4.09,.22,6.18,.34Z"/><path class="cls-3" d="M161.8,293.84c.31-3.64,.65-7.28,.91-10.92,.13-1.86,1.01-2.33,2.8-2.06,9.37,1.38,18.75,2.63,28.12,4.01,.79,.12,1.51,.76,2.26,1.16-.63,.7-1.13,1.65-1.91,2.07-7.89,4.24-15.82,8.4-23.74,12.57-1.76,.93-3.54,1.82-5.28,2.79-1.64,.92-2.62,.45-2.69-1.37-.11-2.74-.03-5.48-.03-8.22-.15,0-.3-.01-.45-.02Z"/><path class="cls-3" d="M365.17,286.08c1.5-.58,2.29-1.05,3.12-1.18,9.28-1.36,18.56-2.7,27.85-3.98,3.26-.45,3.5-.24,3.57,2.96,.14,5.81,.21,11.63,.21,17.44,0,2.97-.7,3.36-3.43,1.92-4.17-2.21-8.25-4.59-12.41-6.81-5.41-2.89-10.87-5.68-16.29-8.54-.71-.37-1.33-.91-2.62-1.81Z"/><path class="cls-2" d="M489,313.92c.61-7.2,2.37-15.09,7.33-22.06,6.97-9.8,16.44-13.86,28.26-12.73,2.96,.28,6.08,.5,8.78,1.58,2.5,1,5.19,2.69,6.67,4.85,3.37,4.9,6.35,10.13,8.91,15.5,2.73,5.73,2,12.08,.55,17.86-3.29,13.15-12.38,21.6-24.79,26.08-6.79,2.45-13.97,1.35-20.1-2.74-9.64-6.43-15.79-15.08-15.62-28.34Z"/></g></g><g><path class="cls-17" d="M645.19,425.32c0-13.07,.03-26.14-.02-39.21-.03-6.31-3.87-10.09-10.12-10.14-2.67-.02-5.33-.06-8,0-1.26,.03-2-.28-2.46-1.19-.04-.07-.06-.16-.1-.23-6.34,0-12.39,1.68-18.91-.06,.02,.38-.03,.82-.03,1.46-1.02,0-1.91,0-2.8,0-98.02,0-196.05,0-294.07,.06,.21,.04,.42,.07,.63,.11-.21-.04-.42-.08-.63-.11-.89,0-1.78,0-2.68,0-1.21,0-2.06-.25-2.73-.76-7.1-.68-14.2-.26-21.29-.15,.04,.17,.08,.36,.13,.56H101.32c.33-.86,.61-1.63,.9-2.36-6.77-.72-13.54,.28-20.31,.67-.7,1.61-1.62,2.01-3.16,1.99-2.83-.04-5.67-.02-8.5,0-7.08,.03-10.7,3.65-10.72,10.8-.03,8.58,0,17.15,0,25.73,0,8.49,.16,16.99-.06,25.47-.15,5.92,3.23,11.42,10.98,11.14,8.4-.31,16.83-.03,25.24-.09,2-.01,2.97,.65,3.4,2.71,.73,3.49,1.83,6.9,2.77,10.34,2.33,8.49,4.66,16.97,6.98,25.46,2.23,8.17,4.44,16.35,6.67,24.51,2.28,8.33,4.59,16.65,6.87,24.98,2.25,8.25,4.46,16.51,6.7,24.76,2.37,8.73,4.82,17.45,7.03,26.22,.33,1.31-.11,3.14-.85,4.32-4.87,7.76-8.35,16.08-10.15,25.03-2.17,10.74-1.9,21.44,.8,32.14,2.87,11.35,8.04,21.43,15.71,30.19,11.21,12.81,25.19,20.94,42.01,23.99,17.54,3.18,34.21,.51,49.61-8.4,16.42-9.5,27.65-23.48,33.37-41.6,.96-3.04,2.33-3.53,5.06-3.53,53.83,.06,107.65,.04,161.48,.05,.75,0,1.59-.2,2.23,.07,.8,.34,1.88,.95,2.08,1.65,3.1,10.82,8.43,20.38,15.96,28.71,11.94,13.21,26.79,21.33,44.41,23.63,19.99,2.61,38.37-2.01,54.47-14.46,17.19-13.29,26.68-30.97,28.52-52.48,1.4-16.32-2.72-31.48-11.63-45.31-.67-1.03-.92-2.72-.62-3.92,1.52-6.21,3.29-12.35,4.95-18.52,2.25-8.34,4.44-16.69,6.72-25.02,2.67-9.77,5.43-19.51,8.1-29.29,2.66-9.77,5.22-19.57,7.89-29.34,3.1-11.37,6.35-22.71,9.36-34.11,.56-2.14,1.49-2.82,3.58-2.81,8.58,.07,17.17-.14,25.75,.08,6.71,.17,10.38-4.89,10.28-10.28-.08-4.49-.01-8.99-.01-13.49ZM196.78,686.65c-30.5,.01-54.81-24.75-54.63-55.08,.17-30.23,24.63-54.49,54.8-54.37,29.99-.12,54.84,24.22,54.7,54.77-.13,30.97-24.77,54.67-54.87,54.68Zm310.87,.07c-30.06-.19-54.62-24.81-54.66-54.79-.04-30.22,24.71-54.81,55.08-54.72,30.32,.08,54.65,24.58,54.52,54.9-.13,30.22-24.86,54.81-54.94,54.61Zm63.47-178.41c-1.7,6.76-3.61,13.47-5.45,20.2-1.86,6.81-3.76,13.61-5.62,20.41-2.12,7.77-4.2,15.55-6.33,23.32-.53,1.94-1.61,1.41-2.8,.56-5.51-3.92-11.36-7.17-17.75-9.46-11.73-4.2-23.66-5.62-36.08-3.7-10.72,1.65-20.56,5.35-29.53,11.31-13.65,9.08-23.27,21.37-28.75,36.87-2.4,6.8-3.85,13.78-3.94,20.98-.03,2.32-.91,3.03-3.12,3.01-9.17-.07-18.33-.03-27.5-.03-43.33,0-86.66,0-130,0-4.19,0-4.1-.01-4.45-4.19-2.37-28.35-16.28-49.03-41.76-61.65-15.39-7.62-31.61-9.09-48.36-5.06-9.18,2.21-17.53,6.11-25.22,11.5-2.67,1.87-2.89,1.74-3.71-1.28-2.67-9.77-5.43-19.52-8.1-29.29-2.67-9.77-5.27-19.56-7.91-29.34-.56-2.08-1.1-4.18-1.75-6.24-.46-1.44,.03-2.07,1.45-2.12,1-.04,2-.03,3-.03,71.67,0,143.33,0,215,0s143.5,0,215.25,0c4.34,0,4.5,.04,3.44,4.24Zm14.66-53.33c-2.49,9.22-5.03,18.42-7.52,27.64-.59,2.18-1.61,3.17-4.17,3.17-147.8-.07-295.61-.07-443.41,0-2.52,0-3.61-.91-4.2-3.11-2.83-10.5-5.71-20.99-8.54-31.49-.14-.53-.02-1.13-.02-1.91h469.15c-.46,2.06-.8,3.91-1.28,5.71Zm37.98-24.27c-.74-.09-1.5-.01-2.25-.01-179.63,0-359.26,0-538.89,0-5.17,0-4.63,.48-4.64-4.74-.02-9.32,0-18.65,0-27.97q0-3.59,3.72-3.6c90.23,0,180.46,0,270.69,0s180.3,0,270.44,0q3.91,0,3.92,3.92c0,9.82-.07,19.65,.05,29.47,.03,2.35-.79,3.2-3.04,2.94Z"/><path class="cls-15" d="M352.43,504.07c71.75,0,143.5,0,215.25,0,4.34,0,4.5,.04,3.44,4.24-1.7,6.76-3.61,13.47-5.45,20.2-1.86,6.81-3.76,13.61-5.62,20.41-2.12,7.77-4.2,15.55-6.33,23.32-.53,1.94-1.61,1.41-2.8,.56-5.51-3.92-11.36-7.17-17.75-9.46-11.73-4.2-23.66-5.62-36.08-3.7-10.72,1.65-20.56,5.35-29.53,11.31-13.65,9.08-23.27,21.37-28.75,36.87-2.4,6.8-3.85,13.78-3.94,20.98-.03,2.32-.91,3.03-3.12,3.01-9.17-.07-18.33-.03-27.5-.03-43.33,0-86.66,0-130,0-4.19,0-4.1-.01-4.45-4.19-2.37-28.35-16.28-49.03-41.76-61.65-15.39-7.62-31.61-9.09-48.36-5.06-9.18,2.21-17.53,6.11-25.22,11.5-2.67,1.87-2.89,1.74-3.71-1.29-2.67-9.77-5.43-19.52-8.1-29.29-2.67-9.77-5.27-19.56-7.91-29.34-.56-2.08-1.1-4.18-1.75-6.24-.46-1.44,.03-2.07,1.45-2.12,1-.04,2-.03,3-.03,71.67,0,143.33,0,215,0Z"/><path class="cls-4" d="M352.39,394.38c90.15,0,180.3,0,270.44,0q3.91,0,3.92,3.92c0,9.82-.07,19.65,.05,29.47,.03,2.35-.79,3.2-3.04,2.94-.74-.09-1.5-.01-2.25-.01-179.63,0-359.26,0-538.89,0-5.17,0-4.63,.48-4.64-4.74-.02-9.32,0-18.65,0-27.97q0-3.59,3.72-3.6c90.23,0,180.46,0,270.69,0Z"/><path class="cls-6" d="M587.07,449.26c-.46,2.06-.8,3.91-1.28,5.71-2.49,9.22-5.03,18.42-7.52,27.64-.59,2.18-1.61,3.17-4.17,3.17-147.8-.07-295.61-.07-443.41,0-2.52,0-3.61-.91-4.2-3.11-2.83-10.5-5.71-20.99-8.54-31.49-.14-.53-.02-1.13-.02-1.91h469.15Z"/><path d="M508.07,577.2c30.32,.08,54.65,24.58,54.52,54.9-.13,30.22-24.87,54.81-54.94,54.61-30.06-.19-54.62-24.81-54.66-54.79-.04-30.22,24.71-54.81,55.08-54.72Zm-.51,18.22c-20.18-.05-36.48,16.69-36.35,36.89,.13,19.89,17.05,36.42,36.94,36.22,20.19-.2,36.35-16.88,36.23-37.06-.11-19.87-16.74-36.49-36.83-36.05Z"/><path d="M196.95,577.2c29.99-.12,54.84,24.22,54.7,54.77-.13,30.97-24.77,54.67-54.87,54.68-30.5,.01-54.81-24.75-54.63-55.08,.17-30.23,24.63-54.49,54.8-54.37Zm-36.59,54.62c-.05,20.2,16.37,36.7,36.55,36.72,19.9,.02,36.66-16.61,36.59-36.56-.07-20.2-16.41-36.68-36.69-36.57-20.25,.11-36.41,16.14-36.46,36.42Z"/><path class="cls-16" d="M507.56,595.42c20.08-.45,36.72,16.18,36.83,36.05,.11,20.18-16.04,36.86-36.23,37.06-19.89,.2-36.81-16.33-36.94-36.22-.13-20.2,16.17-36.93,36.35-36.89Zm.25,54.7c9.91,.01,18.38-8.43,18.33-18.25-.06-9.92-8.54-18.35-18.37-18.26-9.81,.09-18.11,8.41-18.14,18.19-.03,9.96,8.26,18.31,18.19,18.32Z"/><path class="cls-16" d="M160.36,631.81c.05-20.27,16.21-36.31,36.46-36.42,20.28-.11,36.62,16.38,36.69,36.57,.07,19.96-16.69,36.59-36.59,36.56-20.19-.03-36.6-16.52-36.55-36.72Zm54.75,.14c0-9.93-8.33-18.31-18.24-18.35-9.88-.04-18.29,8.42-18.23,18.35,.05,9.85,8.3,18.12,18.12,18.16,9.97,.04,18.35-8.25,18.35-18.16Z"/><path d="M507.81,650.12c-9.92-.01-18.22-8.37-18.19-18.32,.03-9.78,8.33-18.1,18.14-18.19,9.83-.09,18.31,8.34,18.37,18.26,.06,9.82-8.42,18.26-18.33,18.25Z"/><path d="M215.11,631.96c0,9.91-8.39,18.21-18.35,18.16-9.82-.04-18.06-8.31-18.12-18.16-.05-9.93,8.35-18.39,18.23-18.35,9.91,.04,18.24,8.42,18.24,18.35Z"/></g></g></g></g></svg>